<mxfile host="app.diagrams.net" agent="Mozilla/5.0 (X11; Linux x86_64; rv:130.0) Gecko/20100101 Firefox/130.0" version="24.7.17">
  <diagram name="Page-1" id="2YBvvXClWsGukQMizWep">
    <mxGraphModel dx="880" dy="480" grid="1" gridSize="10" guides="1" tooltips="1" connect="1" arrows="0" fold="1" page="1" pageScale="1" pageWidth="850" pageHeight="1100" background="#ffffff" math="0" shadow="0">
      <root>
        <mxCell id="0" />
        <mxCell id="1" parent="0" />
        <mxCell id="lIXKUYozZTPCHkwUWB4R-10" value="&lt;div&gt;TrafficLights v2.0&lt;/div&gt;" style="swimlane;fontStyle=1;align=center;verticalAlign=top;childLayout=stackLayout;horizontal=1;startSize=26;horizontalStack=0;resizeParent=1;resizeParentMax=0;resizeLast=0;collapsible=1;marginBottom=0;whiteSpace=wrap;html=1;rounded=0;glass=0;strokeColor=#005700;strokeWidth=5;spacingLeft=4;spacingRight=4;fontFamily=Helvetica;fontSize=12;labelBackgroundColor=none;fillColor=#008a00;fontColor=#ffffff;" vertex="1" parent="1">
          <mxGeometry x="230" y="420" width="250" height="278" as="geometry" />
        </mxCell>
        <mxCell id="lIXKUYozZTPCHkwUWB4R-11" value="&lt;div&gt;&lt;font data-darkreader-inline-color=&quot;&quot; style=&quot;--darkreader-inline-color: #35ea71;&quot; color=&quot;#20e863&quot;&gt;+ digitalPin2G: int&lt;/font&gt;&lt;/div&gt;&lt;div&gt;&lt;font data-darkreader-inline-color=&quot;&quot; style=&quot;--darkreader-inline-color: #35ea71;&quot; color=&quot;#20e863&quot;&gt;+ digitalPin3Y: int&lt;/font&gt;&lt;/div&gt;&lt;div&gt;&lt;font data-darkreader-inline-color=&quot;&quot; style=&quot;--darkreader-inline-color: #35ea71;&quot; color=&quot;#20e863&quot;&gt;+ digitalPin4R: int&lt;/font&gt;&lt;/div&gt;&lt;div&gt;&lt;font data-darkreader-inline-color=&quot;&quot; style=&quot;--darkreader-inline-color: #35ea71;&quot; color=&quot;#20e863&quot;&gt;+ dPedestrial5R: int&lt;/font&gt;&lt;/div&gt;&lt;div&gt;&lt;font data-darkreader-inline-color=&quot;&quot; style=&quot;--darkreader-inline-color: #35ea71;&quot; color=&quot;#20e863&quot;&gt;+ dPedestrial6G: int&lt;/font&gt;&lt;/div&gt;&lt;div&gt;&lt;font data-darkreader-inline-color=&quot;&quot; style=&quot;--darkreader-inline-color: #35ea71;&quot; color=&quot;#20e863&quot;&gt;+ dPushButton: int&lt;br&gt;&lt;/font&gt;&lt;/div&gt;&lt;div&gt;&lt;font data-darkreader-inline-color=&quot;&quot; style=&quot;--darkreader-inline-color: #35ea71;&quot; color=&quot;#20e863&quot;&gt;+ interval_1: int&lt;/font&gt;&lt;/div&gt;&lt;div&gt;&lt;font data-darkreader-inline-color=&quot;&quot; style=&quot;--darkreader-inline-color: #35ea71;&quot; color=&quot;#20e863&quot;&gt;+ interval_2: int&lt;/font&gt;&lt;/div&gt;&lt;div&gt;&lt;font data-darkreader-inline-color=&quot;&quot; style=&quot;--darkreader-inline-color: #35ea71;&quot; color=&quot;#20e863&quot;&gt;+ interval_3: int&lt;br&gt;&lt;/font&gt;&lt;/div&gt;&lt;div&gt;&lt;font data-darkreader-inline-color=&quot;&quot; style=&quot;--darkreader-inline-color: #35ea71;&quot; color=&quot;#20e863&quot;&gt;+ timeInMilli: unsigned long&lt;/font&gt;&lt;/div&gt;&lt;div&gt;&lt;font data-darkreader-inline-color=&quot;&quot; style=&quot;--darkreader-inline-color: #35ea71;&quot; color=&quot;#20e863&quot;&gt;+ isActive: char&lt;br&gt;&lt;/font&gt;&lt;/div&gt;&lt;div&gt;&lt;font data-darkreader-inline-color=&quot;&quot; style=&quot;--darkreader-inline-color: #35ea71;&quot; color=&quot;#20e863&quot;&gt;&lt;br&gt;&lt;br&gt;&lt;/font&gt;&lt;/div&gt;" style="text;strokeColor=default;fillColor=none;align=left;verticalAlign=top;spacingLeft=4;spacingRight=4;overflow=hidden;rotatable=0;points=[[0,0.5],[1,0.5]];portConstraint=eastwest;whiteSpace=wrap;html=1;fontFamily=Helvetica;fontSize=12;fontColor=default;labelBackgroundColor=none;" vertex="1" parent="lIXKUYozZTPCHkwUWB4R-10">
          <mxGeometry y="26" width="250" height="164" as="geometry" />
        </mxCell>
        <mxCell id="lIXKUYozZTPCHkwUWB4R-12" value="" style="line;strokeWidth=1;fillColor=none;align=left;verticalAlign=middle;spacingTop=-1;spacingLeft=3;spacingRight=3;rotatable=0;labelPosition=right;points=[];portConstraint=eastwest;strokeColor=inherit;rounded=0;glass=0;fontFamily=Helvetica;fontSize=12;fontColor=default;labelBackgroundColor=default;" vertex="1" parent="lIXKUYozZTPCHkwUWB4R-10">
          <mxGeometry y="190" width="250" height="8" as="geometry" />
        </mxCell>
        <mxCell id="lIXKUYozZTPCHkwUWB4R-13" value="&lt;div&gt;&lt;font color=&quot;#20e863&quot; data-darkreader-inline-color=&quot;&quot; style=&quot;--darkreader-inline-color: #35ea71;&quot;&gt;+ init(): void&lt;/font&gt;&lt;/div&gt;&lt;div&gt;&lt;font color=&quot;#20e863&quot; data-darkreader-inline-color=&quot;&quot; style=&quot;--darkreader-inline-color: #35ea71;&quot;&gt;+ greenSignal(): void&lt;/font&gt;&lt;/div&gt;&lt;div&gt;&lt;font color=&quot;#20e863&quot; data-darkreader-inline-color=&quot;&quot; style=&quot;--darkreader-inline-color: #35ea71;&quot;&gt;+ yellowSignal(): void&lt;/font&gt;&lt;/div&gt;&lt;div&gt;&lt;font color=&quot;#20e863&quot; data-darkreader-inline-color=&quot;&quot; style=&quot;--darkreader-inline-color: #35ea71;&quot;&gt;+ redSignal(): void&lt;br&gt;&lt;/font&gt;&lt;/div&gt;" style="text;strokeColor=none;fillColor=none;align=left;verticalAlign=top;spacingLeft=4;spacingRight=4;overflow=hidden;rotatable=0;points=[[0,0.5],[1,0.5]];portConstraint=eastwest;whiteSpace=wrap;html=1;fontFamily=Helvetica;fontSize=12;fontColor=default;labelBackgroundColor=none;" vertex="1" parent="lIXKUYozZTPCHkwUWB4R-10">
          <mxGeometry y="198" width="250" height="80" as="geometry" />
        </mxCell>
      </root>
    </mxGraphModel>
  </diagram>
</mxfile>
